# xmcd
#
# Track frame offsets:
#	150
#	12336
#	25334
#	32825
#	54482
#	64980
#	78153
#	91107
#	101666
#	113170
#	126394
#	133292
#
# Disc length: 1902 seconds
#
# Revision: 0
# Processed by: cddbd v1.5.2PL0 Copyright (c) Steve Scherf et al.
# Submitted via: dBpowerAMP V4.0
#
DISCID=a0076c0c
DTITLE=Camarón de la Isla - Los Cantes de Camarón de la Isla
DYEAR=1998
DGENRE=Folk
TTITLE0=Bulerías Gitanas
TTITLE1=Alegrías de Cádiz
TTITLE2=Fandango de Huelva
TTITLE3=Soleares Flamencas
TTITLE4=Rumba "Tengo Voz Sonora"
TTITLE5=Bulerías
TTITLE6=Fandangos Naturales
TTITLE7=Sevillanas Almonteñas
TTITLE8=Bulerías Caracoleras
TTITLE9=Tangos de Piyayo
TTITLE10=Rumba Flamenca "El Gato"
TTITLE11=Sevillanas Añejas
EXTD=
EXTT0=
EXTT1=
EXTT2=
EXTT3=
EXTT4=
EXTT5=
EXTT6=
EXTT7=
EXTT8=
EXTT9=
EXTT10=
EXTT11=
PLAYORDER=
